<?xml version="1.0" encoding="utf-8"?>
<!-- Generator: Adobe Illustrator 22.0.1, SVG Export Plug-In . SVG Version: 6.00 Build 0)  -->
<svg version="1.1" id="Layer_1" xmlns="http://www.w3.org/2000/svg" xmlns:xlink="http://www.w3.org/1999/xlink" x="0px" y="0px"
	 viewBox="0 0 242 241.1" style="enable-background:new 0 0 242 241.1;" xml:space="preserve">
<style type="text/css">
	.st0{fill:#3A7189;}
	.st1{fill:#FFFFFF;}
</style>
<rect class="st0" width="242" height="241.1"/>
<g>
	<title>Ibri-logo-black</title>
	<path class="st1" d="M39.9,196.4l-20.3,0.7c-2.6,0.1-3.7-1.2-3.8-3.5c0-0.2-5-143.7-5.1-146.6c-0.1-1.6,0.6-4,4.3-4.1l19.6-0.6
		L39.9,196.4z"/>
	<path class="st1" d="M148,101.8l3.2,90.8l19.5-0.7c0.4,0,0.7-0.5,0.7-1.7l-1.9-53.4c0,0-0.7-3.1,4.4-10.6c3-4.4,8.6-8.1,18-7.7
		c0,0,2.1,0.2,2.3-6.1c0.2-9.9,1.2-13.3-3.5-13.9c-3.9-0.4-7.8-0.3-11.6,0.3c-4.2,0.8-8.2,3.3-9.9,4.3c0,0,2.4-2.8-5-2.6
		S148,101.8,148,101.8z"/>
	<path class="st1" d="M221.6,98.5l3.1,88.9c0,0,0.2,1.9-2.8,2.3s-17.7,1.1-17.7,1.1l-3-86.8C201.2,104,205.8,97.4,221.6,98.5z"/>
	<circle class="st1" cx="209.1" cy="80" r="14.7"/>
	<path class="st1" d="M126,112c-7.6-6.2-18.8-9-28.9-8.7c-9.3,0.4-18.2,3.9-25.1,10l-2.6-72.2l-19.6,0.7c-3.7,0.1-4.3,2.4-4.3,4.1
		c0.1,2.8,5.1,146.3,5.1,146.5c0.1,2.3,1.2,3.6,3.8,3.5l20.4-0.7l-0.1-3.6c7.4,5.6,16.5,8.5,25.8,8.3c12.2-0.4,23.9-5.2,31.5-14.4
		c7.4-9,10.8-22.2,10.4-35.3C141.7,134.7,136.5,120.5,126,112z M107.1,173.1c-3.2,3.8-8.5,5-13.2,5.2c-10.9,0.4-20.1-11.2-20.6-25.8
		s7.9-26.8,18.7-27.2c4.7-0.2,10,0.7,13.5,4.3c4.6,4.7,6.8,13.2,7.1,21.5S111.4,168.1,107.1,173.1z"/>
	<path class="st1" d="M229.6,55.3c0.5-0.1,0.9-0.1,1.4-0.1c0.6-0.1,1.2,0.1,1.6,0.5c0.3,0.3,0.5,0.7,0.4,1.1c0,0.7-0.4,1.2-1.1,1.4
		l0,0c0.5,0.2,0.8,0.6,0.8,1.1c0.1,0.5,0.2,1,0.4,1.5h-0.8c-0.2-0.4-0.3-0.9-0.4-1.3c-0.2-0.8-0.5-1.1-1.1-1.1h-0.7v2.4h-0.5V55.3z
		 M230.3,57.9h0.7c0.8,0,1.3-0.4,1.3-1.1s-0.5-1-1.3-1c-0.2,0-0.5,0-0.7,0.1V57.9z"/>
	<path class="st1" d="M231.1,63.1c-2.8,0-5.1-2.3-5.1-5.1c0-2.8,2.3-5.1,5.1-5.1s5.1,2.3,5.1,5.1C236.2,60.8,233.9,63.1,231.1,63.1z
		 M231.1,53.2c-2.6,0-4.8,2.1-4.8,4.8s2.1,4.8,4.8,4.8s4.8-2.1,4.8-4.8l0,0C235.9,55.4,233.7,53.3,231.1,53.2L231.1,53.2z"/>
</g>
</svg>
